<svg width="20" height="15" viewBox="0 0 20 15" fill="none" xmlns="http://www.w3.org/2000/svg">
<path d="M10.4383 14.9313L6.37607 14.8554C5.06083 14.829 3.7423 14.8818 2.45285 14.6077C0.491281 14.1982 0.352317 12.1903 0.206906 10.506C0.00654354 8.13819 0.0841097 5.72738 0.462219 3.3793C0.675674 2.06179 1.51571 1.27561 2.81479 1.19006C7.20014 0.879589 11.6146 0.916383 15.9903 1.06123C16.4524 1.07451 16.9177 1.14709 17.3734 1.2297C19.6227 1.63261 19.6775 3.90801 19.8233 5.82347C19.9688 7.75869 19.9074 9.70385 19.6294 11.6259C19.4065 13.2173 18.9798 14.5518 17.1795 14.6807C14.9237 14.8491 12.7197 14.9848 10.4576 14.9416C10.4577 14.9313 10.4447 14.9313 10.4383 14.9313ZM8.05009 10.9024C9.74999 9.90495 11.4175 8.92416 13.1076 7.93344C11.4046 6.93603 9.74027 5.95524 8.05009 4.96452V10.9024Z" fill="#3A3D43"/>
</svg>
