<svg width="28" height="27" viewBox="0 0 28 27" fill="none" xmlns="http://www.w3.org/2000/svg">
<path d="M26.5752 18.3364L20.5485 12.3142C20.6746 11.6991 20.7372 11.0727 20.7352 10.4448C20.7347 8.72311 20.3009 7.02935 19.4738 5.52004C18.6467 4.01074 17.453 2.73461 16.0031 1.8096C14.5531 0.884591 12.8938 0.340564 11.1783 0.227803C9.46288 0.115042 7.74674 0.437187 6.18852 1.16446C5.9911 1.25478 5.81868 1.39199 5.68624 1.56419C5.55379 1.73639 5.46533 1.93837 5.42852 2.15258C5.39185 2.36407 5.40664 2.5813 5.47163 2.78585C5.53662 2.99041 5.6499 3.17625 5.80185 3.32764L11.6019 9.12283L9.20185 11.5264L3.41518 5.71782C3.26274 5.56801 3.07659 5.45706 2.8724 5.39432C2.66821 5.33158 2.45196 5.31888 2.24185 5.35729C2.02929 5.39281 1.8285 5.47938 1.65666 5.60961C1.48482 5.73984 1.34707 5.90985 1.25518 6.10506C0.526552 7.6707 0.20516 9.39547 0.320907 11.1189C0.436655 12.8424 0.98578 14.5085 1.9172 15.9623C2.84862 17.4162 4.13208 18.6104 5.64818 19.4341C7.16427 20.2577 8.86375 20.684 10.5885 20.6731C11.2155 20.6752 11.841 20.6125 12.4552 20.4862L18.4685 26.5217C18.5925 26.6469 18.7399 26.7462 18.9024 26.814C19.0649 26.8818 19.2392 26.9167 19.4152 26.9167C19.5912 26.9167 19.7655 26.8818 19.928 26.814C20.0904 26.7462 20.2379 26.6469 20.3619 26.5217C20.4868 26.3976 20.586 26.2499 20.6537 26.0872C20.7214 25.9245 20.7563 25.75 20.7563 25.5737C20.7563 25.3974 20.7214 25.2229 20.6537 25.0602C20.586 24.8974 20.4868 24.7498 20.3619 24.6256L13.8285 18.0827C13.6653 17.9203 13.4628 17.8029 13.2408 17.7421C13.0189 17.6812 12.785 17.679 12.5619 17.7355C11.9181 17.9082 11.255 17.9979 10.5885 18.0026C9.59125 18.0114 8.6021 17.8225 7.67804 17.4468C6.75398 17.0711 5.91328 16.516 5.20437 15.8135C4.49546 15.111 3.93235 14.2749 3.54748 13.3535C3.1626 12.4321 2.96357 11.4435 2.96185 10.4448C2.96012 9.99747 2.9958 9.55081 3.06852 9.10948L8.29519 14.3572C8.41914 14.4824 8.5666 14.5817 8.72908 14.6495C8.89156 14.7173 9.06584 14.7522 9.24185 14.7522C9.41787 14.7522 9.59214 14.7173 9.75462 14.6495C9.9171 14.5817 10.0646 14.4824 10.1885 14.3572L14.4285 10.0709C14.6688 9.8219 14.8032 9.48915 14.8032 9.14286C14.8032 8.79657 14.6688 8.46382 14.4285 8.21483L9.24185 2.98046C9.68263 2.90837 10.1286 2.87265 10.5752 2.87364C12.5779 2.87718 14.4974 3.67641 15.9123 5.09589C17.3272 6.51537 18.1219 8.4391 18.1219 10.4448C18.1172 11.1122 18.0276 11.7763 17.8552 12.421C17.7987 12.6444 17.801 12.8787 17.8618 13.101C17.9225 13.3233 18.0397 13.526 18.2019 13.6895L24.7352 20.2325C24.9863 20.4839 25.3268 20.6252 25.6819 20.6252C26.0369 20.6252 26.3774 20.4839 26.6285 20.2325C26.8796 19.9811 27.0206 19.64 27.0206 19.2844C27.0206 18.9289 26.8796 18.5878 26.6285 18.3364H26.5752Z" fill="#A276FF"/>
</svg>
