<svg width="18" height="18" viewBox="0 0 18 18" fill="none" xmlns="http://www.w3.org/2000/svg">
<path d="M0 2.37122C0 1.79401 0.202708 1.31782 0.608108 0.942653C1.01351 0.567467 1.54055 0.379883 2.18919 0.379883C2.82626 0.379883 3.34169 0.564575 3.73552 0.933995C4.14092 1.31495 4.34363 1.81133 4.34363 2.42317C4.34363 2.97728 4.14672 3.43903 3.7529 3.80845C3.3475 4.18941 2.81467 4.37988 2.15444 4.37988H2.13707C1.49999 4.37988 0.984562 4.18941 0.590734 3.80845C0.196905 3.4275 0 2.94842 0 2.37122ZM0.225869 17.5227V5.95564H4.08301V17.5227H0.225869ZM6.22008 17.5227H10.0772V11.0639C10.0772 10.6598 10.1236 10.3481 10.2162 10.1288C10.3784 9.73629 10.6245 9.4044 10.9546 9.13313C11.2847 8.86184 11.6988 8.7262 12.1969 8.7262C13.4942 8.7262 14.1429 9.59777 14.1429 11.3409V17.5227H18V10.8907C18 9.18218 17.5946 7.88637 16.7838 7.00326C15.973 6.12014 14.9015 5.67858 13.5695 5.67858C12.0753 5.67858 10.9112 6.31927 10.0772 7.60066V7.63529H10.0598L10.0772 7.60066V5.95564H6.22008C6.24324 6.32504 6.25483 7.47366 6.25483 9.40152C6.25483 11.3294 6.24324 14.0364 6.22008 17.5227Z" fill="#3A3D43"/>
</svg>
