<svg width="18" height="16" viewBox="0 0 18 16" fill="none" xmlns="http://www.w3.org/2000/svg">
<path d="M12.0271 0.652656V0.649414H12.8711L13.1794 0.711006C13.385 0.750992 13.5717 0.803394 13.7394 0.868228C13.9071 0.933061 14.0694 1.00871 14.2263 1.09515C14.3832 1.18158 14.5255 1.26966 14.6532 1.35934C14.7798 1.44795 14.8934 1.54196 14.9941 1.64137C15.0936 1.74186 15.2489 1.76779 15.4599 1.71917C15.6709 1.67054 15.8981 1.603 16.1416 1.51656C16.385 1.43012 16.6258 1.33287 16.8638 1.22481C17.1019 1.11675 17.2469 1.04814 17.2988 1.01897C17.3497 0.988721 17.3768 0.972512 17.38 0.970341L17.3832 0.965478L17.3995 0.957374L17.4157 0.94927L17.4319 0.941165L17.4482 0.933061L17.4514 0.928199L17.4563 0.924957L17.4612 0.921715L17.4644 0.916853L17.4806 0.91199L17.4968 0.908749L17.4936 0.933061L17.4887 0.957374L17.4806 0.981686L17.4725 1.006L17.4644 1.02221L17.4563 1.03842L17.4482 1.06273C17.4427 1.07894 17.4373 1.10054 17.4319 1.12756C17.4265 1.15458 17.3751 1.26263 17.2777 1.45173C17.1803 1.64083 17.0586 1.83263 16.9125 2.02713C16.7665 2.22163 16.6355 2.36858 16.5198 2.468C16.4029 2.56849 16.3255 2.63872 16.2876 2.67871C16.2498 2.71976 16.2038 2.75758 16.1497 2.79217L16.0685 2.84565L16.0523 2.85376L16.0361 2.86186L16.0328 2.86672L16.028 2.86997L16.0231 2.87321L16.0198 2.87807L16.0036 2.88617L15.9874 2.89428L15.9841 2.89914L15.9793 2.90238L15.9744 2.90562L15.9711 2.91049L15.9679 2.91535L15.963 2.91859L15.9582 2.92183L15.9549 2.9267H16.0361L16.4905 2.82944C16.7935 2.76461 17.083 2.68628 17.3589 2.59442L17.7971 2.44855L17.8458 2.43234L17.8702 2.42423L17.8864 2.41613L17.9026 2.40803L17.9188 2.39992L17.9351 2.39182L17.9675 2.38696L18 2.38371V2.41613L17.9919 2.41937L17.9838 2.42423L17.9805 2.4291L17.9757 2.43234L17.9708 2.43558L17.9675 2.44044L17.9643 2.44531L17.9594 2.44855L17.9546 2.45179L17.9513 2.45665L17.9481 2.46151L17.9432 2.46476L17.9351 2.48096L17.927 2.49717L17.9221 2.50041C17.9199 2.50366 17.8512 2.59549 17.716 2.77596C17.5807 2.95749 17.5077 3.04933 17.4968 3.0515C17.486 3.05474 17.4709 3.07095 17.4514 3.10013C17.433 3.13037 17.3183 3.25086 17.1073 3.46157C16.8963 3.67228 16.6897 3.85975 16.4873 4.024C16.2839 4.18933 16.1811 4.39247 16.1789 4.63344C16.1757 4.87333 16.1632 5.14456 16.1416 5.4471C16.1199 5.74967 16.0794 6.07652 16.0198 6.42771C15.9603 6.7789 15.8684 7.17601 15.7439 7.61903C15.6195 8.06205 15.468 8.49428 15.2894 8.9157C15.1109 9.33712 14.9243 9.71531 14.7295 10.0503C14.5347 10.3853 14.3562 10.6689 14.1939 10.9012C14.0316 11.1335 13.8666 11.3524 13.6988 11.5577C13.5311 11.763 13.319 11.9942 13.0626 12.2514C12.8051 12.5075 12.6644 12.648 12.6406 12.6728C12.6157 12.6966 12.5097 12.7852 12.3225 12.9386C12.1363 13.0931 11.9362 13.2477 11.7219 13.4022C11.5088 13.5556 11.3129 13.6837 11.1344 13.7863C10.9558 13.889 10.7405 14.0062 10.4884 14.1381C10.2373 14.271 9.96573 14.3941 9.67358 14.5076C9.38142 14.6211 9.07304 14.7264 8.74842 14.8237C8.42381 14.9209 8.11001 14.9966 7.80703 15.0506C7.50407 15.1046 7.16051 15.1505 6.77637 15.1884L6.20018 15.2451V15.2532H5.14518V15.2451L5.00721 15.237C4.91525 15.2316 4.8395 15.2262 4.77998 15.2208C4.72048 15.2154 4.49594 15.1856 4.1064 15.1316C3.71686 15.0776 3.41119 15.0236 3.18936 14.9695C2.96755 14.9155 2.63751 14.8129 2.19928 14.6616C1.76105 14.5103 1.38611 14.3574 1.07448 14.2029C0.763937 14.0494 0.569167 13.9522 0.490171 13.9111C0.412263 13.8711 0.324617 13.8215 0.227232 13.762L0.0811542 13.6729L0.0779243 13.668L0.0730388 13.6648L0.0681695 13.6615L0.0649234 13.6567L0.0486925 13.6486L0.0324617 13.6405L0.0292317 13.6356L0.0243463 13.6323L0.019477 13.6291L0.0162308 13.6242L0.0130009 13.6194L0.00811542 13.6161H0V13.5837L0.0162308 13.587L0.0324617 13.5918L0.1055 13.5999C0.154193 13.6053 0.28675 13.6134 0.503156 13.6242C0.719578 13.6351 0.949504 13.6351 1.19297 13.6242C1.43643 13.6134 1.68531 13.5891 1.93959 13.5513C2.19387 13.5135 2.49414 13.4487 2.8404 13.3568C3.18667 13.265 3.50479 13.1558 3.79479 13.0294C4.08369 12.9019 4.28927 12.8068 4.41156 12.7441C4.53274 12.6825 4.71777 12.568 4.96664 12.4005L5.33995 12.1493L5.34319 12.1444L5.34806 12.1412L5.35295 12.1379L5.35618 12.1331L5.35942 12.1282L5.36429 12.125L5.36918 12.1217L5.37241 12.1169L5.38864 12.112L5.40487 12.1088L5.40812 12.0926L5.41298 12.0763L5.41787 12.0731L5.4211 12.0682L5.29125 12.0601C5.20469 12.0547 5.12083 12.0493 5.03968 12.0439C4.95852 12.0385 4.83139 12.0142 4.65825 11.971C4.48513 11.9278 4.29848 11.8629 4.09829 11.7765C3.89811 11.69 3.70334 11.5874 3.51398 11.4685C3.32463 11.3497 3.18774 11.2508 3.10334 11.1719C3.02002 11.0941 2.91181 10.9839 2.77872 10.8413C2.64671 10.6976 2.53201 10.55 2.43463 10.3988C2.33724 10.2475 2.24419 10.073 2.15547 9.87524L2.02074 9.58025L2.01262 9.55593L2.00451 9.53162L1.99964 9.51541L1.99639 9.4992L2.02074 9.50245L2.04509 9.50731L2.22362 9.53162C2.34266 9.54783 2.52932 9.55323 2.78359 9.54783C3.03788 9.54243 3.21371 9.53162 3.31109 9.51541C3.40848 9.4992 3.46799 9.48839 3.48963 9.483L3.52209 9.47489L3.56267 9.46679L3.60325 9.45868L3.60649 9.45382L3.61136 9.45058L3.61625 9.44734L3.61948 9.44248L3.58702 9.43437L3.55455 9.42627L3.52209 9.41816L3.48963 9.41006L3.45717 9.40195C3.43553 9.39656 3.39767 9.38575 3.34355 9.36954C3.28946 9.35333 3.14338 9.29389 2.90532 9.19125C2.66728 9.0886 2.47791 8.98864 2.33724 8.89139C2.19622 8.79386 2.06176 8.68719 1.93472 8.57208C1.80812 8.45538 1.66908 8.30518 1.51758 8.12149C1.3661 7.9378 1.23085 7.72438 1.11181 7.48126C0.992792 7.23813 0.903522 7.00582 0.844004 6.7843C0.784724 6.56408 0.745615 6.33894 0.727158 6.11165L0.697926 5.77127L0.714157 5.77451L0.730388 5.77938L0.746619 5.78748L0.762849 5.79558L0.77908 5.80369L0.795311 5.81179L1.04689 5.92525C1.21462 6.0009 1.42291 6.06573 1.67178 6.11975C1.92066 6.17377 2.06943 6.2035 2.11812 6.2089L2.19116 6.217H2.33724L2.33401 6.21214L2.32913 6.2089L2.32426 6.20566L2.32101 6.20079L2.31778 6.19593L2.31289 6.19269L2.30803 6.18945L2.30478 6.18459L2.28855 6.17648L2.27232 6.16838L2.26909 6.16351L2.2642 6.16027L2.25933 6.15703L2.25609 6.15217L2.23986 6.14406L2.22362 6.13596L2.22039 6.1311C2.21715 6.12893 2.17061 6.09435 2.08079 6.02736C1.99206 5.95929 1.89901 5.87123 1.80162 5.76317C1.70424 5.65511 1.60685 5.54165 1.50947 5.42279C1.4119 5.30366 1.32501 5.17621 1.24977 5.04189C1.17404 4.90683 1.09396 4.735 1.00956 4.52647C0.926245 4.319 0.862945 4.10991 0.819657 3.8992C0.776386 3.68849 0.75204 3.48049 0.746619 3.27518C0.741214 3.06986 0.746619 2.89428 0.762849 2.7484C0.77908 2.60253 0.811542 2.43774 0.860234 2.25405C0.908927 2.07036 0.979271 1.87586 1.07124 1.67054L1.2092 1.36258L1.21731 1.33827L1.22543 1.31396L1.23031 1.31072L1.23354 1.30585L1.23679 1.30099L1.24166 1.29775L1.24654 1.30099L1.24977 1.30585L1.25302 1.31072L1.25789 1.31396L1.26278 1.3172L1.26601 1.32206L1.26925 1.32693L1.27412 1.33017L1.28224 1.34638L1.29035 1.36258L1.29524 1.36583L1.29847 1.37069L1.51758 1.61381C1.66366 1.7759 1.8368 1.9569 2.03697 2.1568C2.23716 2.35669 2.34807 2.46043 2.3697 2.468C2.39135 2.47664 2.41839 2.50148 2.45086 2.54256C2.48332 2.58254 2.59153 2.67817 2.77547 2.82944C2.95943 2.98072 3.20019 3.15632 3.49775 3.35622C3.79532 3.55612 4.12534 3.75332 4.48783 3.94783C4.85033 4.14233 5.23987 4.31791 5.65645 4.4746C6.07304 4.63129 6.3652 4.73393 6.53291 4.78256C6.70064 4.83118 6.98738 4.89331 7.39315 4.96896C7.79892 5.0446 8.10461 5.09323 8.31019 5.11483C8.51579 5.13644 8.65646 5.14887 8.73219 5.15211L8.84581 5.15535L8.84258 5.13104L8.83769 5.10673L8.80523 4.90412C8.78359 4.76906 8.77277 4.57995 8.77277 4.33683C8.77277 4.0937 8.79171 3.86949 8.82958 3.66418C8.86746 3.45887 8.92427 3.25086 9 3.04015C9.07575 2.82944 9.14988 2.66033 9.22236 2.53283C9.29595 2.40641 9.39225 2.26215 9.51127 2.10007C9.63031 1.93798 9.7845 1.7705 9.97385 1.59761C10.1632 1.42471 10.3796 1.27073 10.6231 1.13567C10.8665 1.0006 11.0911 0.897938 11.2967 0.827707C11.5023 0.757476 11.6754 0.711541 11.8161 0.689935C11.9567 0.668329 12.0271 0.655897 12.0271 0.652656Z" fill="#3A3D43"/>
</svg>
