<svg width="23" height="27" viewBox="0 0 23 27" fill="none" xmlns="http://www.w3.org/2000/svg">
<path d="M7.54264 10.8855H8.87598C9.2296 10.8855 9.56874 10.7448 9.81878 10.4944C10.0688 10.244 10.2093 9.90435 10.2093 9.5502C10.2093 9.19606 10.0688 8.85642 9.81878 8.60601C9.56874 8.35559 9.2296 8.21491 8.87598 8.21491H7.54264C7.18902 8.21491 6.84988 8.35559 6.59983 8.60601C6.34979 8.85642 6.20931 9.19606 6.20931 9.5502C6.20931 9.90435 6.34979 10.244 6.59983 10.4944C6.84988 10.7448 7.18902 10.8855 7.54264 10.8855ZM7.54264 13.5561C7.18902 13.5561 6.84988 13.6968 6.59983 13.9472C6.34979 14.1976 6.20931 14.5372 6.20931 14.8914C6.20931 15.2455 6.34979 15.5852 6.59983 15.8356C6.84988 16.086 7.18902 16.2267 7.54264 16.2267H15.5426C15.8963 16.2267 16.2354 16.086 16.4855 15.8356C16.7355 15.5852 16.876 15.2455 16.876 14.8914C16.876 14.5372 16.7355 14.1976 16.4855 13.9472C16.2354 13.6968 15.8963 13.5561 15.5426 13.5561H7.54264ZM22.2093 9.47009C22.1954 9.34742 22.1686 9.22657 22.1293 9.10956V8.98938C22.0652 8.85208 21.9797 8.72588 21.876 8.6155L13.876 0.603714C13.7658 0.49985 13.6397 0.41421 13.5026 0.350008C13.4628 0.344346 13.4224 0.344346 13.3826 0.350008C13.2472 0.272215 13.0976 0.222279 12.9426 0.203125H4.87598C3.81511 0.203125 2.79769 0.625173 2.04755 1.37642C1.2974 2.12767 0.875977 3.14659 0.875977 4.20902V22.9032C0.875977 23.9656 1.2974 24.9845 2.04755 25.7358C2.79769 26.487 3.81511 26.9091 4.87598 26.9091H18.2093C19.2702 26.9091 20.2876 26.487 21.0377 25.7358C21.7879 24.9845 22.2093 23.9656 22.2093 22.9032V9.5502C22.2093 9.5502 22.2093 9.5502 22.2093 9.47009ZM14.2093 4.75649L17.6626 8.21491H15.5426C15.189 8.21491 14.8499 8.07422 14.5998 7.82381C14.3498 7.57339 14.2093 7.23375 14.2093 6.87961V4.75649ZM19.5426 22.9032C19.5426 23.2573 19.4022 23.597 19.1521 23.8474C18.9021 24.0978 18.5629 24.2385 18.2093 24.2385H4.87598C4.52235 24.2385 4.18322 24.0978 3.93317 23.8474C3.68312 23.597 3.54264 23.2573 3.54264 22.9032V4.20902C3.54264 3.85487 3.68312 3.51524 3.93317 3.26482C4.18322 3.0144 4.52235 2.87372 4.87598 2.87372H11.5426V6.87961C11.5426 7.94204 11.9641 8.96095 12.7142 9.7122C13.4644 10.4635 14.4818 10.8855 15.5426 10.8855H19.5426V22.9032ZM15.5426 18.8973H7.54264C7.18902 18.8973 6.84988 19.038 6.59983 19.2884C6.34979 19.5388 6.20931 19.8784 6.20931 20.2326C6.20931 20.5867 6.34979 20.9264 6.59983 21.1768C6.84988 21.4272 7.18902 21.5679 7.54264 21.5679H15.5426C15.8963 21.5679 16.2354 21.4272 16.4855 21.1768C16.7355 20.9264 16.876 20.5867 16.876 20.2326C16.876 19.8784 16.7355 19.5388 16.4855 19.2884C16.2354 19.038 15.8963 18.8973 15.5426 18.8973Z" fill="#7291FF"/>
</svg>
