<svg width="138" height="40" viewBox="0 0 138 40" fill="none" xmlns="http://www.w3.org/2000/svg">
<rect x="0.5" y="16.1501" width="7.78223" height="7.78224" fill="#039855"/>
<rect x="23.8467" y="23.9324" width="7.78224" height="7.78224" transform="rotate(180 23.8467 23.9324)" fill="#027A48"/>
<path d="M8.28223 16.1501L16.0645 8.36786V16.1501L8.28223 23.9323V16.1501Z" fill="#A6F4C5"/>
<path d="M16.0645 23.9324L8.28223 31.7146L8.28223 23.9324L16.0645 16.1501L16.0645 23.9324Z" fill="#6CE9A6"/>
<path d="M0.5 16.1501L16.0645 0.585632V8.36787L8.28223 16.1501H0.5Z" fill="#32D583"/>
<path d="M23.8467 23.9324L8.28222 39.4969L8.28222 31.7146L16.0644 23.9324L23.8467 23.9324Z" fill="#12B76A"/>
<path d="M40.796 28.3748C39.5703 28.3748 38.3824 28.2008 37.2323 27.8527C36.0974 27.5047 35.1971 27.0431 34.5312 26.4681L35.5527 24.1756C36.2034 24.6901 36.9978 25.1138 37.936 25.4467C38.8893 25.7645 39.8426 25.9234 40.796 25.9234C41.9763 25.9234 42.8539 25.7342 43.429 25.3559C44.0191 24.9776 44.3142 24.4782 44.3142 23.8578C44.3142 23.4039 44.1477 23.0331 43.8148 22.7456C43.4971 22.443 43.0885 22.2084 42.5891 22.042C42.0898 21.8755 41.4088 21.6864 40.5463 21.4745C39.3357 21.187 38.3521 20.8995 37.5955 20.612C36.854 20.3245 36.2109 19.8781 35.6662 19.2728C35.1365 18.6524 34.8717 17.8201 34.8717 16.776C34.8717 15.8983 35.1063 15.1039 35.5754 14.3927C36.0596 13.6663 36.7784 13.0913 37.7317 12.6676C38.7002 12.2439 39.8805 12.032 41.2726 12.032C42.2411 12.032 43.1944 12.1531 44.1326 12.3952C45.0708 12.6373 45.8804 12.9854 46.5613 13.4393L45.6307 15.7319C44.9346 15.3233 44.2083 15.0131 43.4517 14.8012C42.695 14.5894 41.9611 14.4835 41.2499 14.4835C40.0848 14.4835 39.2147 14.6802 38.6396 15.0736C38.0797 15.467 37.7998 15.9891 37.7998 16.6398C37.7998 17.0938 37.9587 17.4645 38.2765 17.752C38.6094 18.0395 39.0255 18.2665 39.5249 18.4329C40.0242 18.5994 40.7052 18.7886 41.5677 19.0004C42.748 19.2728 43.7165 19.5603 44.4731 19.8629C45.2297 20.1504 45.8728 20.5968 46.4024 21.2021C46.9472 21.8074 47.2196 22.6246 47.2196 23.6535C47.2196 24.5312 46.9774 25.3256 46.4932 26.0369C46.0241 26.7481 45.3053 27.3155 44.3369 27.7392C43.3684 28.1629 42.1881 28.3748 40.796 28.3748Z" fill="#101828"/>
<path d="M49.8731 16.0269H52.7104V28.1478H49.8731V16.0269ZM51.3031 14.0295C50.7886 14.0295 50.3574 13.8706 50.0093 13.5528C49.6613 13.2199 49.4873 12.8114 49.4873 12.3271C49.4873 11.8429 49.6613 11.4419 50.0093 11.1241C50.3574 10.7912 50.7886 10.6248 51.3031 10.6248C51.8176 10.6248 52.2489 10.7836 52.5969 11.1014C52.945 11.4041 53.119 11.7899 53.119 12.259C53.119 12.7584 52.945 13.1821 52.5969 13.5301C52.264 13.863 51.8327 14.0295 51.3031 14.0295Z" fill="#101828"/>
<path d="M60.1795 28.3067C59.196 28.3067 58.2351 28.1781 57.2969 27.9208C56.3587 27.6636 55.6096 27.3382 55.0497 26.9448L56.1393 24.7885C56.684 25.1516 57.3347 25.4467 58.0913 25.6737C58.863 25.8855 59.6196 25.9915 60.3611 25.9915C62.0559 25.9915 62.9033 25.5451 62.9033 24.6523C62.9033 24.2286 62.6839 23.9335 62.2451 23.767C61.8214 23.6006 61.1329 23.4417 60.1795 23.2904C59.1808 23.139 58.3637 22.965 57.7281 22.7683C57.1077 22.5716 56.563 22.2311 56.0939 21.7469C55.6399 21.2475 55.4129 20.559 55.4129 19.6814C55.4129 18.5313 55.8896 17.6158 56.8429 16.9349C57.8114 16.2388 59.1127 15.8907 60.747 15.8907C61.5793 15.8907 62.4115 15.9891 63.2438 16.1858C64.0761 16.3674 64.757 16.6171 65.2866 16.9349L64.1971 19.0912C63.1681 18.4859 62.0105 18.1833 60.7243 18.1833C59.892 18.1833 59.2565 18.3119 58.8176 18.5691C58.3939 18.8113 58.1821 19.1366 58.1821 19.5452C58.1821 19.9991 58.4091 20.3245 58.863 20.5212C59.3321 20.7028 60.0509 20.8768 61.0194 21.0432C61.9878 21.1946 62.7823 21.3686 63.4027 21.5653C64.0231 21.762 64.5527 22.0949 64.9916 22.564C65.4455 23.0331 65.6725 23.6989 65.6725 24.5615C65.6725 25.6964 65.1807 26.6043 64.1971 27.2853C63.2135 27.9662 61.8743 28.3067 60.1795 28.3067Z" fill="#101828"/>
<path d="M79.2434 16.0269L73.5688 29.1238C73.0392 30.4403 72.3961 31.3634 71.6395 31.893C70.8829 32.4378 69.9674 32.7101 68.893 32.7101C68.2877 32.7101 67.69 32.6118 67.0998 32.4151C66.5097 32.2183 66.0255 31.946 65.6472 31.5979L66.7821 29.5097C67.0544 29.7669 67.3722 29.9712 67.7354 30.1225C68.1137 30.2739 68.492 30.3495 68.8703 30.3495C69.3697 30.3495 69.7782 30.2209 70.096 29.9637C70.4289 29.7064 70.7316 29.2751 71.0039 28.6699L71.2082 28.1932L65.9195 16.0269H68.8703L72.6836 24.9927L76.5196 16.0269H79.2434Z" fill="#101828"/>
<path d="M87.7354 15.8907C88.9157 15.8907 89.9674 16.148 90.8904 16.6625C91.8286 17.177 92.5625 17.9033 93.0921 18.8415C93.6218 19.7797 93.8866 20.8617 93.8866 22.0874C93.8866 23.3131 93.6218 24.4026 93.0921 25.3559C92.5625 26.2941 91.8286 27.0204 90.8904 27.5349C89.9674 28.0494 88.9157 28.3067 87.7354 28.3067C86.1011 28.3067 84.8073 27.7619 83.854 26.6724V32.5512H81.0167V16.0269H83.7178V17.6158C84.1869 17.0408 84.7619 16.6095 85.4428 16.322C86.1389 16.0345 86.9031 15.8907 87.7354 15.8907ZM87.4176 25.878C88.4617 25.878 89.3167 25.5299 89.9825 24.8338C90.6634 24.1378 91.0039 23.2223 91.0039 22.0874C91.0039 20.9525 90.6634 20.037 89.9825 19.3409C89.3167 18.6448 88.4617 18.2968 87.4176 18.2968C86.7366 18.2968 86.1238 18.4556 85.579 18.7734C85.0343 19.0761 84.603 19.5149 84.2852 20.0899C83.9675 20.6649 83.8086 21.3308 83.8086 22.0874C83.8086 22.844 83.9675 23.5098 84.2852 24.0848C84.603 24.6598 85.0343 25.1062 85.579 25.424C86.1238 25.7266 86.7366 25.878 87.4176 25.878Z" fill="#101828"/>
<path d="M103.455 15.8907C104.983 15.8907 106.209 16.3371 107.132 17.2299C108.055 18.1227 108.517 19.4468 108.517 21.2021V28.1478H105.679V21.5653C105.679 20.5061 105.43 19.7116 104.93 19.182C104.431 18.6372 103.72 18.3649 102.797 18.3649C101.753 18.3649 100.928 18.6826 100.323 19.3182C99.7173 19.9386 99.4147 20.839 99.4147 22.0193V28.1478H96.5774V11.3057H99.4147V17.4342C99.8838 16.9349 100.459 16.5566 101.14 16.2993C101.836 16.0269 102.608 15.8907 103.455 15.8907Z" fill="#101828"/>
<path d="M123.851 16.0269V28.1478H121.15V26.6043C120.696 27.1491 120.128 27.5728 119.447 27.8754C118.767 28.1629 118.033 28.3067 117.246 28.3067C115.627 28.3067 114.348 27.8603 113.41 26.9675C112.487 26.0596 112.025 24.7204 112.025 22.9499V16.0269H114.862V22.564C114.862 23.6535 115.105 24.4707 115.589 25.0154C116.088 25.5451 116.792 25.8099 117.7 25.8099C118.714 25.8099 119.516 25.4997 120.106 24.8792C120.711 24.2437 121.014 23.3358 121.014 22.1555V16.0269H123.851Z" fill="#101828"/>
<path d="M131.311 28.3067C130.327 28.3067 129.367 28.1781 128.428 27.9208C127.49 27.6636 126.741 27.3382 126.181 26.9448L127.271 24.7885C127.815 25.1516 128.466 25.4467 129.223 25.6737C129.994 25.8855 130.751 25.9915 131.493 25.9915C133.187 25.9915 134.035 25.5451 134.035 24.6523C134.035 24.2286 133.815 23.9335 133.377 23.767C132.953 23.6006 132.264 23.4417 131.311 23.2904C130.312 23.139 129.495 22.965 128.86 22.7683C128.239 22.5716 127.694 22.2311 127.225 21.7469C126.771 21.2475 126.544 20.559 126.544 19.6814C126.544 18.5313 127.021 17.6158 127.974 16.9349C128.943 16.2388 130.244 15.8907 131.878 15.8907C132.711 15.8907 133.543 15.9891 134.375 16.1858C135.208 16.3674 135.888 16.6171 136.418 16.9349L135.329 19.0912C134.3 18.4859 133.142 18.1833 131.856 18.1833C131.023 18.1833 130.388 18.3119 129.949 18.5691C129.525 18.8113 129.314 19.1366 129.314 19.5452C129.314 19.9991 129.541 20.3245 129.995 20.5212C130.464 20.7028 131.182 20.8768 132.151 21.0432C133.119 21.1946 133.914 21.3686 134.534 21.5653C135.155 21.762 135.684 22.0949 136.123 22.564C136.577 23.0331 136.804 23.6989 136.804 24.5615C136.804 25.6964 136.312 26.6043 135.329 27.2853C134.345 27.9662 133.006 28.3067 131.311 28.3067Z" fill="#101828"/>
</svg>
