<svg width="115" height="38" viewBox="0 0 115 38" fill="none" xmlns="http://www.w3.org/2000/svg">
<path d="M10.8678 17.7281C11.5098 15.3323 13.9724 12.8697 16.3682 12.2276L31.3045 8.22483C33.7003 7.58279 35.122 9.00447 34.48 11.4002L30.4772 26.3366C29.8351 28.7324 27.3725 31.195 24.9767 31.837L10.0404 35.8398C7.64461 36.4819 6.22293 35.0602 6.86497 32.6644L10.8678 17.7281Z" fill="#9E77ED"/>
<path d="M4.87947 11.74C5.52151 9.34426 7.98415 6.88162 10.3799 6.23958L25.3163 2.23679C27.7121 1.59475 29.1337 3.01643 28.4917 5.41221L24.4889 20.3485C23.8469 22.7443 21.3842 25.207 18.9885 25.849L4.0521 29.8518C1.65633 30.4938 0.234645 29.0721 0.876688 26.6764L4.87947 11.74Z" fill="#6941C6"/>
<path d="M48.3586 24.8381H53.4964V26.8495H45.8662V11.6547H48.3586V24.8381Z" fill="#101828"/>
<path d="M54.7499 20.7715C54.7499 19.5618 54.9977 18.4905 55.4933 17.5577C56.0034 16.6249 56.6885 15.9034 57.5484 15.3932C58.4229 14.8685 59.3849 14.6062 60.4343 14.6062C61.3817 14.6062 62.2052 14.7956 62.9048 15.1746C63.619 15.539 64.1875 15.9981 64.6102 16.552V14.8029H67.1244V26.8495H64.6102V25.0567C64.1875 25.6251 63.6117 26.0988 62.883 26.4778C62.1542 26.8567 61.3234 27.0462 60.3906 27.0462C59.3557 27.0462 58.4084 26.7839 57.5484 26.2592C56.6885 25.7199 56.0034 24.9765 55.4933 24.0291C54.9977 23.0672 54.7499 21.9813 54.7499 20.7715ZM64.6102 20.8153C64.6102 19.9845 64.4353 19.263 64.0854 18.6508C63.7502 18.0387 63.3057 17.5723 62.7518 17.2516C62.1979 16.9309 61.6004 16.7706 60.959 16.7706C60.3177 16.7706 59.7201 16.9309 59.1663 17.2516C58.6124 17.5577 58.1606 18.0168 57.8108 18.629C57.4755 19.2266 57.3079 19.9407 57.3079 20.7715C57.3079 21.6023 57.4755 22.3311 57.8108 22.9578C58.1606 23.5846 58.6124 24.0656 59.1663 24.4008C59.7347 24.7215 60.3323 24.8818 60.959 24.8818C61.6004 24.8818 62.1979 24.7215 62.7518 24.4008C63.3057 24.0801 63.7502 23.6137 64.0854 23.0016C64.4353 22.3748 64.6102 21.6461 64.6102 20.8153Z" fill="#101828"/>
<path d="M81.2421 14.8029L73.8524 32.512H71.2726L73.7212 26.6527L68.977 14.8029H71.7536L75.1423 23.9854L78.6623 14.8029H81.2421Z" fill="#101828"/>
<path d="M94.1638 20.531C94.1638 20.9829 94.1347 21.391 94.0764 21.7554H84.8721C84.9449 22.7173 85.302 23.4898 85.9433 24.0729C86.5847 24.6559 87.3717 24.9474 88.3045 24.9474C89.6455 24.9474 90.5929 24.3862 91.1467 23.2639H93.8359C93.4715 24.3716 92.8083 25.2826 91.8464 25.9968C90.899 26.6964 89.7184 27.0462 88.3045 27.0462C87.1531 27.0462 86.1182 26.7912 85.2 26.281C84.2963 25.7563 83.5821 25.0275 83.0574 24.0947C82.5473 23.1473 82.2922 22.0542 82.2922 20.8153C82.2922 19.5764 82.54 18.4905 83.0356 17.5577C83.5457 16.6103 84.2526 15.8815 85.1563 15.3714C86.0745 14.8612 87.1239 14.6062 88.3045 14.6062C89.4414 14.6062 90.4544 14.854 91.3435 15.3495C92.2326 15.8451 92.9249 16.5447 93.4205 17.4484C93.9161 18.3375 94.1638 19.365 94.1638 20.531ZM91.5621 19.744C91.5476 18.8257 91.2196 18.0897 90.5783 17.5358C89.937 16.982 89.1426 16.705 88.1952 16.705C87.3353 16.705 86.5992 16.982 85.9871 17.5358C85.3749 18.0751 85.0105 18.8112 84.8939 19.744H91.5621Z" fill="#101828"/>
<path d="M99.109 16.552C99.4734 15.9398 99.9543 15.4661 100.552 15.1309C101.164 14.7811 101.886 14.6062 102.716 14.6062V17.186H102.082C101.106 17.186 100.362 17.4338 99.8523 17.9293C99.3568 18.4249 99.109 19.2849 99.109 20.5092V26.8495H96.6166V14.8029H99.109V16.552Z" fill="#101828"/>
<path d="M109.38 27.0462C108.433 27.0462 107.58 26.8786 106.822 26.5434C106.079 26.1936 105.488 25.7272 105.051 25.1441C104.614 24.5466 104.381 23.8834 104.351 23.1546H106.931C106.975 23.6647 107.216 24.0947 107.653 24.4445C108.105 24.7798 108.666 24.9474 109.336 24.9474C110.036 24.9474 110.575 24.8162 110.954 24.5538C111.348 24.2769 111.544 23.9271 111.544 23.5044C111.544 23.0526 111.326 22.7173 110.889 22.4987C110.466 22.2801 109.788 22.0396 108.855 21.7772C107.952 21.5295 107.216 21.289 106.647 21.0558C106.079 20.8226 105.583 20.4655 105.16 19.9845C104.752 19.5035 104.548 18.8695 104.548 18.0824C104.548 17.4411 104.738 16.8581 105.117 16.3333C105.496 15.7941 106.035 15.3714 106.735 15.0653C107.449 14.7592 108.265 14.6062 109.183 14.6062C110.553 14.6062 111.654 14.956 112.485 15.6556C113.33 16.3406 113.782 17.2807 113.84 18.4759H111.348C111.304 17.9366 111.085 17.5067 110.692 17.186C110.298 16.8653 109.766 16.705 109.096 16.705C108.44 16.705 107.937 16.8289 107.587 17.0767C107.237 17.3245 107.063 17.6524 107.063 18.0605C107.063 18.3812 107.179 18.6508 107.412 18.8695C107.646 19.0881 107.93 19.263 108.265 19.3942C108.6 19.5108 109.096 19.6638 109.752 19.8533C110.626 20.0865 111.34 20.327 111.894 20.5748C112.463 20.808 112.951 21.1578 113.359 21.6242C113.767 22.0906 113.979 22.7101 113.993 23.4826C113.993 24.1676 113.804 24.7798 113.425 25.319C113.046 25.8583 112.506 26.281 111.807 26.5871C111.122 26.8932 110.313 27.0462 109.38 27.0462Z" fill="#101828"/>
</svg>
