<svg width="152" height="40" viewBox="0 0 152 40" fill="none" xmlns="http://www.w3.org/2000/svg">
<path d="M13.4663 27.8211C20.6275 27.8211 26.4328 22.0159 26.4328 14.8547C26.4328 14.0431 26.3582 13.2489 26.2155 12.4786C25.4453 12.336 24.6511 12.2614 23.8395 12.2614C16.6783 12.2614 10.873 18.0667 10.873 25.2278C10.873 26.0394 10.9476 26.8336 11.0903 27.6039C11.8606 27.7466 12.6547 27.8211 13.4663 27.8211Z" fill="#175CD3"/>
<path fill-rule="evenodd" clip-rule="evenodd" d="M11.0904 27.6039C5.06398 26.4879 0.5 21.2043 0.5 14.8547C0.5 7.69352 6.30527 1.88824 13.4664 1.88824C19.816 1.88824 25.0996 6.45222 26.2157 12.4786C25.4454 12.336 24.6512 12.2614 23.8396 12.2614C16.6784 12.2614 10.8732 18.0667 10.8732 25.2278C10.8732 26.0394 10.9477 26.8336 11.0904 27.6039Z" fill="#1570EF"/>
<path fill-rule="evenodd" clip-rule="evenodd" d="M13.4659 27.8211C20.6271 27.8211 26.4324 22.0158 26.4324 14.8546C26.4324 14.043 26.3578 13.2489 26.2151 12.4786C32.2415 13.5946 36.8055 18.8782 36.8055 25.2278C36.8055 32.389 31.0002 38.1942 23.8391 38.1942C17.4895 38.1942 12.2059 33.6303 11.0898 27.6039C11.8601 27.7465 12.6543 27.8211 13.4659 27.8211Z" fill="#2E90FA"/>
<path d="M61.7487 24.0877C61.2866 25.5818 60.478 26.6984 59.3228 27.4378C58.1676 28.1617 56.8199 28.5236 55.2796 28.5236C53.7702 28.5236 52.461 28.2079 51.352 27.5764C50.2584 26.9449 49.4113 26.0438 48.8106 24.8732C48.2253 23.7026 47.9326 22.301 47.9326 20.6683C47.9326 19.0357 48.233 17.634 48.8337 16.4635C49.4344 15.2929 50.2815 14.3918 51.3751 13.7603C52.4687 13.1288 53.7548 12.8131 55.2334 12.8131C56.7891 12.8131 58.1214 13.1442 59.2304 13.8065C60.3548 14.4534 61.1249 15.4392 61.5408 16.7638L58.6528 17.9883C58.3909 17.0642 57.9905 16.4095 57.4514 16.0245C56.9123 15.624 56.2192 15.4238 55.372 15.4238C54.109 15.4238 53.1002 15.8782 52.3454 16.7869C51.6061 17.6803 51.2365 18.9741 51.2365 20.6683C51.2365 22.3472 51.5907 23.641 52.2992 24.5498C53.0078 25.4585 54.032 25.9129 55.372 25.9129C56.2038 25.9129 56.92 25.6896 57.5207 25.2429C58.1368 24.7962 58.5681 24.1185 58.8145 23.2098L61.7487 24.0877Z" fill="#101828"/>
<path d="M65.7368 15.0772C64.4276 15.0772 63.773 14.515 63.773 13.3907C63.773 12.2509 64.4276 11.681 65.7368 11.681C67.046 11.681 67.7006 12.2509 67.7006 13.3907C67.7006 14.515 67.046 15.0772 65.7368 15.0772ZM67.3079 16.7407V28.2926H64.1427V16.7407H67.3079Z" fill="#101828"/>
<path d="M70.6632 28.2926V16.7407H73.4125L73.6205 19.0049C73.9131 18.2193 74.3521 17.6109 74.9374 17.1797C75.5381 16.733 76.2928 16.5097 77.2015 16.5097C77.7406 16.5097 78.1565 16.5944 78.4492 16.7638L78.0795 19.4207C77.9255 19.3745 77.7329 19.336 77.5019 19.3052C77.2863 19.259 77.0013 19.2359 76.6471 19.2359C76.1696 19.2359 75.7152 19.3514 75.2839 19.5825C74.8681 19.7981 74.5215 20.137 74.2443 20.599C73.967 21.0457 73.8284 21.6156 73.8284 22.3087V28.2926H70.6632Z" fill="#101828"/>
<path d="M85.429 16.5097C86.9693 16.5097 88.163 16.8408 89.0101 17.5031C89.8727 18.1654 90.4426 18.9664 90.7198 19.9059L87.7625 20.9687C87.4545 19.5671 86.692 18.8663 85.4752 18.8663C84.5973 18.8663 83.9119 19.1743 83.419 19.7904C82.9415 20.4065 82.7028 21.323 82.7028 22.5398C82.7028 23.772 82.9492 24.6884 83.4421 25.2891C83.9504 25.8744 84.6358 26.1671 85.4983 26.1671C86.8384 26.1671 87.6393 25.4816 87.9011 24.1108L90.766 25.035C90.5042 26.0669 89.9189 26.9064 89.0101 27.5533C88.1168 28.2002 86.9539 28.5236 85.5214 28.5236C84.32 28.5236 83.265 28.2849 82.3562 27.8074C81.4629 27.3299 80.7698 26.6445 80.2769 25.7512C79.784 24.8578 79.5376 23.7797 79.5376 22.5167C79.5376 21.2536 79.784 20.1755 80.2769 19.2821C80.7852 18.3888 81.4783 17.7034 82.3562 17.2259C83.2496 16.7484 84.2738 16.5097 85.429 16.5097Z" fill="#101828"/>
<path d="M98.4932 16.5097C99.6483 16.5097 100.673 16.7484 101.566 17.2259C102.459 17.7034 103.152 18.3888 103.645 19.2821C104.154 20.1755 104.408 21.2536 104.408 22.5167C104.408 23.7797 104.154 24.8578 103.645 25.7512C103.152 26.6445 102.459 27.3299 101.566 27.8074C100.673 28.2849 99.6483 28.5236 98.4932 28.5236C97.3226 28.5236 96.2906 28.2849 95.3972 27.8074C94.5193 27.3299 93.8262 26.6445 93.3179 25.7512C92.825 24.8578 92.5786 23.7797 92.5786 22.5167C92.5786 21.2536 92.825 20.1755 93.3179 19.2821C93.8262 18.3888 94.5193 17.7034 95.3972 17.2259C96.2906 16.7484 97.3226 16.5097 98.4932 16.5097ZM98.4932 18.8663C97.6306 18.8663 96.9529 19.1743 96.46 19.7904C95.9825 20.3911 95.7438 21.2999 95.7438 22.5167C95.7438 23.7335 95.9825 24.6499 96.46 25.266C96.9529 25.8667 97.6306 26.1671 98.4932 26.1671C99.3403 26.1671 100.003 25.8667 100.48 25.266C100.973 24.6499 101.219 23.7335 101.219 22.5167C101.219 21.2999 100.973 20.3911 100.48 19.7904C100.003 19.1743 99.3403 18.8663 98.4932 18.8663Z" fill="#101828"/>
<path d="M112.324 16.5097C113.479 16.5097 114.503 16.7484 115.397 17.2259C116.29 17.7034 116.983 18.3888 117.476 19.2821C117.984 20.1755 118.238 21.2536 118.238 22.5167C118.238 23.7797 117.984 24.8578 117.476 25.7512C116.983 26.6445 116.29 27.3299 115.397 27.8074C114.503 28.2849 113.479 28.5236 112.324 28.5236C111.153 28.5236 110.121 28.2849 109.228 27.8074C108.35 27.3299 107.657 26.6445 107.149 25.7512C106.656 24.8578 106.409 23.7797 106.409 22.5167C106.409 21.2536 106.656 20.1755 107.149 19.2821C107.657 18.3888 108.35 17.7034 109.228 17.2259C110.121 16.7484 111.153 16.5097 112.324 16.5097ZM112.324 18.8663C111.461 18.8663 110.784 19.1743 110.291 19.7904C109.813 20.3911 109.575 21.2999 109.575 22.5167C109.575 23.7335 109.813 24.6499 110.291 25.266C110.784 25.8667 111.461 26.1671 112.324 26.1671C113.171 26.1671 113.833 25.8667 114.311 25.266C114.804 24.6499 115.05 23.7335 115.05 22.5167C115.05 21.2999 114.804 20.3911 114.311 19.7904C113.833 19.1743 113.171 18.8663 112.324 18.8663Z" fill="#101828"/>
<path d="M124.006 11.681V24.7346C124.006 25.2737 124.098 25.6511 124.283 25.8667C124.468 26.0823 124.776 26.1902 125.207 26.1902C125.469 26.1902 125.685 26.1748 125.854 26.144C126.024 26.1131 126.239 26.0515 126.501 25.9591L126.224 28.0385C125.962 28.1925 125.631 28.308 125.23 28.385C124.845 28.4774 124.46 28.5236 124.075 28.5236C122.951 28.5236 122.127 28.2541 121.603 27.715C121.095 27.1605 120.841 26.2826 120.841 25.0812V11.681H124.006Z" fill="#101828"/>
<path d="M133.625 28.5236C131.807 28.5236 130.352 28 129.258 26.9526C128.165 25.8898 127.618 24.4112 127.618 22.5167C127.618 21.2536 127.864 20.1755 128.357 19.2821C128.85 18.3888 129.535 17.7034 130.413 17.2259C131.307 16.7484 132.323 16.5097 133.463 16.5097C134.634 16.5097 135.627 16.7484 136.444 17.2259C137.26 17.688 137.884 18.3272 138.315 19.1435C138.746 19.9444 138.962 20.8609 138.962 21.8929C138.962 22.2009 138.954 22.4936 138.939 22.7708C138.923 23.048 138.9 23.2945 138.869 23.5101H130.714C130.837 24.4035 131.145 25.0735 131.638 25.5201C132.146 25.9514 132.801 26.1671 133.602 26.1671C134.279 26.1671 134.826 26.0361 135.242 25.7743C135.658 25.5124 135.981 25.1505 136.212 24.6884L138.731 25.6588C138.361 26.5675 137.714 27.276 136.79 27.7843C135.866 28.2772 134.811 28.5236 133.625 28.5236ZM133.44 18.8431C131.946 18.8431 131.045 19.6672 130.737 21.3153H135.935C135.843 20.5143 135.581 19.9059 135.15 19.4901C134.734 19.0588 134.164 18.8431 133.44 18.8431Z" fill="#101828"/>
<path d="M146.265 28.5236C145.094 28.5236 144.024 28.3157 143.054 27.8998C142.099 27.484 141.321 26.8987 140.72 26.144L142.545 24.2956C142.915 24.8501 143.408 25.3045 144.024 25.6588C144.64 26.013 145.372 26.1902 146.219 26.1902C146.819 26.1902 147.297 26.1054 147.651 25.936C148.021 25.7512 148.206 25.4662 148.206 25.0812C148.206 24.8347 148.121 24.6268 147.952 24.4574C147.782 24.2725 147.443 24.1262 146.935 24.0184L144.902 23.6025C143.562 23.3253 142.607 22.9094 142.037 22.3549C141.482 21.785 141.205 21.0534 141.205 20.1601C141.205 19.5286 141.39 18.9356 141.76 18.3811C142.145 17.8266 142.715 17.3799 143.469 17.0411C144.224 16.6868 145.164 16.5097 146.288 16.5097C148.629 16.5097 150.308 17.2259 151.325 18.6583L149.43 20.5066C149.091 19.9675 148.645 19.5594 148.09 19.2821C147.551 18.9895 146.981 18.8431 146.381 18.8431C145.025 18.8431 144.347 19.2205 144.347 19.9752C144.347 20.2217 144.455 20.4373 144.671 20.6221C144.886 20.7916 145.279 20.9379 145.849 21.0611L148.206 21.5463C149.346 21.7773 150.162 22.1701 150.655 22.7246C151.148 23.2637 151.394 23.9183 151.394 24.6884C151.394 25.7974 150.947 26.7138 150.054 27.4378C149.176 28.1617 147.913 28.5236 146.265 28.5236Z" fill="#101828"/>
</svg>
